<svg width="395" height="101" viewBox="0 0 395 101" fill="none" xmlns="http://www.w3.org/2000/svg">
<rect width="395" height="101" fill="#1E1E1E"/>
<path d="M79 3.875C79.1667 4.29167 79.1667 4.875 79 5.625C78.75 6.125 78.625 6.45833 78.625 6.625C78.7083 6.79167 78.7083 6.95833 78.625 7.125C78.625 7.45833 78.5417 7.95833 78.375 8.625C78.2083 9.29167 78.125 9.83333 78.125 10.25C78.0417 10.75 78 11.25 78 11.75C78.0833 12.25 78.125 12.75 78.125 13.25C78.0417 13.8333 77.9583 14.4167 77.875 15C77.7917 15.5833 77.7083 16.1667 77.625 16.75C77.5417 17.3333 77.4167 17.875 77.25 18.375C77.1667 18.875 77.0833 19.4167 77 20C76.9167 20.5 76.875 21 76.875 21.5C76.875 21.9167 76.875 22.3333 76.875 22.75C76.625 24.25 76.5 25.5 76.5 26.5C76.5833 27.4167 76.5833 28.3333 76.5 29.25C76.5 29.9167 76.4583 30.625 76.375 31.375C76.2917 32.0417 76.2083 32.7083 76.125 33.375C76.0417 34.0417 75.9583 34.75 75.875 35.5C75.7917 36.25 75.75 36.9583 75.75 37.625C75.75 38.375 75.75 39.25 75.75 40.25C75.8333 41.1667 75.5 41.8333 74.75 42.25C74.3333 42.1667 74.125 41.9167 74.125 41.5C74.125 41 74.125 40.6667 74.125 40.5C74.125 40 74.0417 39.5 73.875 39C73.7083 38.4167 73.5417 37.7917 73.375 37.125C73.2917 36.7083 73.25 36.2917 73.25 35.875C73.25 35.4583 73.2083 35.0417 73.125 34.625C72.9583 34.0417 72.75 33.4167 72.5 32.75C72.1667 31.5833 71.9167 30.7083 71.75 30.125C71.5833 29.5417 71.4167 29 71.25 28.5C71 27.5833 70.8333 27.0417 70.75 26.875C70.6667 26.625 70.5833 26.4167 70.5 26.25C70.3333 25.3333 70.2083 24.75 70.125 24.5C70.0417 24.25 69.9583 24.0417 69.875 23.875C69.375 22.7083 68.9583 21.6667 68.625 20.75C68.375 19.75 68.0417 18.8333 67.625 18C67.2083 17.0833 66.9167 16.4583 66.75 16.125C66.5833 15.7917 66 15.4167 65 15C64.3333 14.75 63.6667 14.625 63 14.625C62.3333 14.5417 61.625 14.4167 60.875 14.25C60.4583 14.1667 60.0833 14.0833 59.75 14C59.5 13.8333 59.2083 13.75 58.875 13.75C58.2917 13.75 57.6667 13.7917 57 13.875C56.3333 13.875 55.7083 13.9167 55.125 14C54.4583 14.1667 53.875 14.3333 53.375 14.5C52.875 14.6667 52.375 14.8333 51.875 15C51.7083 15.4167 51.5833 15.875 51.5 16.375C51.4167 16.7917 51.2917 17.2083 51.125 17.625C51.0417 18.0417 51 18.4167 51 18.75C51 19 50.9583 19.3333 50.875 19.75C50.7917 20.4167 50.7083 21.0833 50.625 21.75C50.625 22.3333 50.5833 22.875 50.5 23.375C50.5 23.7917 50.5 24.25 50.5 24.75C50.5 25.25 50.4167 25.7083 50.25 26.125C50.5 26.5417 50.5833 26.9167 50.5 27.25C50.5 27.5833 50.5 27.9583 50.5 28.375C50.5833 29.2917 50.5833 30.1667 50.5 31C50.5 31.75 50.4167 32.5 50.25 33.25C50.1667 34 50.0833 34.7083 50 35.375C49.8333 36.125 49.7083 36.875 49.625 37.625C49.5417 38.2917 49.4583 39 49.375 39.75C49.2917 40.25 49.2083 40.625 49.125 40.875C49.125 41.0417 49.0833 41.3333 49 41.75C49 42.75 48.9167 43.875 48.75 45.125C48.5833 46.2917 48.4167 47.4167 48.25 48.5C48.1667 49.0833 48.125 49.6667 48.125 50.25C48.125 50.75 48.0417 51.3333 47.875 52C47.7917 52.4167 47.6667 52.9167 47.5 53.5C47.4167 54.0833 47.3333 54.6667 47.25 55.25C46.9167 56.9167 46.6667 58.4583 46.5 59.875C46.3333 60.7917 46.25 61.75 46.25 62.75C46.25 63.75 46.2917 64.7917 46.375 65.875C46.375 66.7083 46.4167 67.3333 46.5 67.75C46.6667 69.0833 46.7083 70.3333 46.625 71.5C46.625 72.5833 46.6667 73.625 46.75 74.625C46.8333 75.0417 46.9167 75.4583 47 75.875C47.0833 76.2083 47.1667 76.5833 47.25 77C47.3333 77.4167 47.375 77.875 47.375 78.375C47.375 78.7917 47.4167 79.2083 47.5 79.625C47.5833 79.875 47.7083 80.125 47.875 80.375C48.0417 80.625 48.1667 80.875 48.25 81.125C48.4167 81.625 48.5417 82.125 48.625 82.625C48.7917 83.125 49 83.5833 49.25 84C49.4167 84.4167 49.5 84.875 49.5 85.375C49.5833 85.875 49.75 86.3333 50 86.75C50.4167 87.4167 50.9583 87.9167 51.625 88.25C52.375 88.5833 53.125 88.9167 53.875 89.25C54.5417 89.6667 55.4583 90 56.625 90.25C57.7917 90.5 58.9583 90.6667 60.125 90.75C61.125 91.25 61.7917 91.5 62.125 91.5C62.4583 91.5 62.6667 91.7083 62.75 92.125C62.3333 92.7083 62 93 61.75 93C61.5833 93 61.4167 93.0417 61.25 93.125C60.5833 93.2917 59.9167 93.4167 59.25 93.5C58.6667 93.5 58 93.5833 57.25 93.75C55.75 93.8333 54.0417 94.0833 52.125 94.5C51.7083 94.5 51.0833 94.5833 50.25 94.75C49.6667 94.8333 49.125 94.9167 48.625 95C48.125 95 47.5833 95.0833 47 95.25C45.5 95.6667 43.875 96.0417 42.125 96.375C40.375 96.625 38.6667 96.875 37 97.125C36 97.2917 35 97.4583 34 97.625C33.0833 97.7917 32.1667 98 31.25 98.25C30.3333 98.4167 29.4167 98.625 28.5 98.875C27.6667 99.2083 26.75 99.2917 25.75 99.125C25.75 98.5417 25.9583 98.125 26.375 97.875C26.7917 97.5417 27.2083 97.25 27.625 97C28.625 96.3333 29.3333 95.8333 29.75 95.5C30.25 95.0833 30.75 94.75 31.25 94.5C32.1667 93.5833 33.0417 92.7083 33.875 91.875C34.7083 91.0417 35.5833 90.1667 36.5 89.25C37 88.9167 37.4167 88.625 37.75 88.375C38.0833 87.875 38.3333 87.4583 38.5 87.125C39.3333 85.7917 39.8333 84.6667 40 83.75C40.1667 82.9167 40.25 82.1667 40.25 81.5C40.3333 80.75 40.375 79.7917 40.375 78.625C40.5417 77.7917 40.625 76.8333 40.625 75.75C40.625 75.25 40.6667 74.9167 40.75 74.75C40.8333 74.5 40.875 74.2083 40.875 73.875C40.9583 73.5417 40.9583 73.25 40.875 73C40.875 72.75 40.9167 72.5 41 72.25C41.1667 71.8333 41.3333 71.5 41.5 71.25C41.6667 70.9167 41.8333 70.5833 42 70.25C41.8333 69.8333 41.7083 69.4167 41.625 69C41.625 68.5 41.5417 68 41.375 67.5C41.125 66.5833 41.0417 65.9583 41.125 65.625C41.2083 65.2083 41.25 64.7917 41.25 64.375L40.875 61.75C40.7917 61.3333 40.7083 60.9167 40.625 60.5C40.625 60 40.625 59.5417 40.625 59.125C40.5417 58.2917 40.5 57.5417 40.5 56.875C40.5833 56.125 40.625 55.4167 40.625 54.75C40.5417 54 40.4583 53.25 40.375 52.5C40.375 51.6667 40.3333 50.875 40.25 50.125C40.1667 49.4583 40.125 48.625 40.125 47.625C40.2083 46.5417 40.2083 45.6667 40.125 45C40.0417 43.4167 39.9167 41.875 39.75 40.375C39.5833 38.875 39.4167 37.2917 39.25 35.625C39.0833 34.375 38.9167 33.125 38.75 31.875C38.6667 30.625 38.4583 29.4167 38.125 28.25C37.875 27.5 37.7083 26.875 37.625 26.375C37.625 25.7917 37.5 25.25 37.25 24.75C36.6667 23 36.375 21.5 36.375 20.25C36.4583 18.9167 36.3333 17.5833 36 16.25C35.4167 16.0833 34.7917 16.0833 34.125 16.25C33.4583 16.4167 32.7917 16.5417 32.125 16.625C31.4583 16.625 30.8333 16.5833 30.25 16.5C29.6667 16.4167 29.0417 16.3333 28.375 16.25C27.4583 16.25 26.5833 16.3333 25.75 16.5C24.9167 16.5833 24.125 16.6667 23.375 16.75H22C21 17 20.2917 17.2083 19.875 17.375C19.5417 17.4583 19.2917 17.2917 19.125 16.875C18.4583 17.5417 17.8333 17.9583 17.25 18.125C16.25 18.7083 15.5833 19.125 15.25 19.375C15 19.5417 14.75 19.8333 14.5 20.25C13.8333 21.3333 13.25 22.1667 12.75 22.75C12.3333 23.3333 12 23.9167 11.75 24.5L10.75 26.25C10.25 27.5833 9.875 28.7917 9.625 29.875C9.375 30.875 9.08333 31.875 8.75 32.875C8.58333 33.125 8.45833 33.4167 8.375 33.75C8.29167 34.0833 8.16667 34.4167 8 34.75C7.58333 35.5 7.375 36.0417 7.375 36.375C7.29167 36.7083 7.20833 37.0833 7.125 37.5C7.04167 37.8333 6.79167 38.0417 6.375 38.125C5.95833 37.9583 5.79167 37.6667 5.875 37.25C5.875 36.8333 5.875 36.4167 5.875 36C5.79167 35.5833 5.66667 35.25 5.5 35C5.33333 34.6667 5.25 34.3333 5.25 34C5.16667 33.4167 5.20833 32.875 5.375 32.375C5.45833 31.7917 5.41667 31.2083 5.25 30.625C5.16667 30.375 5.08333 30.125 5 29.875C4.91667 29.5417 4.83333 29.2083 4.75 28.875C4.41667 27.375 4.16667 25.7917 4 24.125C3.83333 22.4583 3.54167 20.875 3.125 19.375C2.95833 18.7083 2.83333 18.0833 2.75 17.5C2.66667 16.9167 2.54167 16.3333 2.375 15.75C2.125 14.8333 1.95833 14.3333 1.875 14.25C1.79167 14.1667 1.75 14.0417 1.75 13.875C1.66667 13.5417 1.66667 13.25 1.75 13C1.75 12.6667 1.70833 12.2917 1.625 11.875C1.54167 11.625 1.45833 11.3333 1.375 11C1.29167 10.6667 1.20833 10.375 1.125 10.125C1.20833 9.375 1.16667 8.95833 1 8.875C0.833333 8.70833 0.791667 8.625 0.875 8.625C0.791667 7.70833 0.75 6.66667 0.75 5.5C0.666667 4.25 0.541667 2.875 0.375 1.375C1.125 1.125 1.41667 0.916667 1.25 0.75C1 0.5 1 0.333333 1.25 0.25C2.08333 0.25 2.66667 0.583333 3 1.25C3.41667 1.41667 3.79167 1.66667 4.125 2C4.45833 2.25 4.83333 2.5 5.25 2.75C6.08333 3.25 6.66667 3.58333 7 3.75C7.75 4.16667 8.25 4.45833 8.5 4.625C8.83333 4.79167 9.16667 4.95833 9.5 5.125C10.6667 5.79167 11.25 6.125 11.25 6.125C11.4167 6.29167 11.5833 6.45833 11.75 6.625C11.9167 6.70833 12.125 6.83333 12.375 7C12.5417 7.08333 12.75 7.125 13 7.125C13.25 7.125 13.5 7.16667 13.75 7.25C14.9167 7.66667 15.7917 7.875 16.375 7.875C17.0417 7.79167 17.6667 7.79167 18.25 7.875C19 7.79167 19.4167 7.79167 19.5 7.875C19.5833 7.95833 19.7083 8 19.875 8C20.125 8 20.375 7.95833 20.625 7.875C20.9583 7.79167 21.25 7.875 21.5 8.125C21.9167 8.04167 22.3333 8 22.75 8C23.1667 7.91667 23.5833 7.875 24 7.875C24.4167 7.79167 24.875 7.79167 25.375 7.875C25.875 7.875 26.4167 7.875 27 7.875H32.25C33.4167 7.79167 34.5417 7.79167 35.625 7.875C36.7917 7.875 38 7.83333 39.25 7.75C40.1667 7.66667 41.1667 7.625 42.25 7.625C43.3333 7.625 44.375 7.58333 45.375 7.5C45.7083 7.5 46 7.54167 46.25 7.625C46.5 7.70833 46.7917 7.75 47.125 7.75C47.9583 7.58333 48.5833 7.5 49 7.5C50.1667 7.5 51.375 7.5 52.625 7.5C53.875 7.5 55.0833 7.45833 56.25 7.375C56.75 7.375 57.2083 7.33333 57.625 7.25C58.125 7.08333 58.625 7 59.125 7C59.7917 6.91667 60.5 6.91667 61.25 7C62 7 62.7917 7.04167 63.625 7.125C64.5417 7.125 65.4583 7.125 66.375 7.125C67.375 7.125 68.25 7.20833 69 7.375C70.1667 7.70833 71.4167 7.625 72.75 7.125C73.5 6.875 73.9583 6.70833 74.125 6.625C74.375 6.45833 74.625 6.29167 74.875 6.125C75.125 6.04167 75.375 6 75.625 6C75.9583 5.91667 76.2083 5.83333 76.375 5.75C76.875 5.5 77.3333 5.16667 77.75 4.75C77.9167 4.58333 78.0833 4.375 78.25 4.125C78.4167 3.79167 78.6667 3.70833 79 3.875ZM112.25 3.75C112.667 3.83333 113 3.83333 113.25 3.75C113.583 3.66667 113.958 3.625 114.375 3.625C114.708 3.625 115 3.66667 115.25 3.75C115.583 3.83333 115.917 3.875 116.25 3.875C116.5 3.875 116.75 3.83333 117 3.75C117.333 3.66667 117.625 3.625 117.875 3.625C118.292 3.54167 118.792 3.5 119.375 3.5C119.958 3.5 120.458 3.58333 120.875 3.75C121.708 4.08333 122.25 4.25 122.5 4.25C122.833 4.16667 123.167 4.16667 123.5 4.25C124.417 4.58333 125.083 4.79167 125.5 4.875C126 4.875 126.458 4.95833 126.875 5.125C127.292 5.29167 127.708 5.45833 128.125 5.625C128.542 5.79167 128.958 5.95833 129.375 6.125C130.042 6.29167 130.542 6.45833 130.875 6.625C131.208 6.79167 131.5 6.91667 131.75 7C132 7.08333 132.292 7.20833 132.625 7.375C133.125 7.79167 133.417 8 133.5 8C133.583 7.91667 133.708 7.91667 133.875 8C134.708 8.41667 135.208 8.625 135.375 8.625C135.542 8.54167 135.708 8.54167 135.875 8.625C137.208 9.29167 138.208 9.79167 138.875 10.125C139.625 10.4583 140.333 10.8333 141 11.25C141.333 11.4167 141.625 11.625 141.875 11.875C142.208 12.125 142.5 12.3333 142.75 12.5C143.667 12.9167 144.125 13.2083 144.125 13.375C144.208 13.4583 144.333 13.5833 144.5 13.75C145.25 14.25 145.667 14.5417 145.75 14.625C145.917 14.7083 146.083 14.8333 146.25 15C147.083 15.4167 147.5 15.6667 147.5 15.75C147.5 15.8333 147.542 15.9167 147.625 16C148.292 16.4167 148.75 16.7917 149 17.125C149.333 17.4583 149.667 17.7917 150 18.125C150.5 18.625 151 19.125 151.5 19.625C152.083 20.0417 152.667 20.5417 153.25 21.125C154 21.7917 154.583 22.3333 155 22.75C155.417 23.0833 155.833 23.4583 156.25 23.875C156.25 24.2917 156.417 24.5833 156.75 24.75C157.167 24.9167 157.458 25.0833 157.625 25.25C158.208 26 158.542 26.4583 158.625 26.625C158.708 26.7917 158.833 26.9583 159 27.125C159.167 27.4583 159.375 27.875 159.625 28.375C159.875 28.7917 160.125 29.2083 160.375 29.625C160.542 30.0417 160.708 30.4583 160.875 30.875C161.042 31.2083 161.208 31.5833 161.375 32C161.625 32.5 161.917 33.0833 162.25 33.75C162.667 34.4167 163 35.0833 163.25 35.75C163.5 37 163.75 37.875 164 38.375C164.167 39.0417 164.292 39.5833 164.375 40C164.542 41.1667 164.583 42.4583 164.5 43.875C164.5 45.2917 164.458 46.6667 164.375 48C164.375 49.9167 164.375 51.8333 164.375 53.75C164.375 55.5833 164.292 57.4167 164.125 59.25L163.75 60.75C163.75 61 163.75 61.2917 163.75 61.625C163.75 61.875 163.708 62.125 163.625 62.375C163.542 63.0417 163.417 63.625 163.25 64.125C163.167 64.5417 163.042 65.0417 162.875 65.625C162.792 65.875 162.75 66.125 162.75 66.375C162.833 66.625 162.833 66.9167 162.75 67.25C162.667 67.4167 162.583 67.625 162.5 67.875C162.417 68.125 162.333 68.4167 162.25 68.75C162.167 69 162.125 69.25 162.125 69.5C162.208 69.75 162.208 70 162.125 70.25C161.958 70.9167 161.708 71.625 161.375 72.375C161.125 73.0417 160.875 73.75 160.625 74.5C159.958 76.3333 159.208 78.0417 158.375 79.625C158.125 80.0417 157.833 80.4583 157.5 80.875C157.25 81.2083 156.917 81.5833 156.5 82C155.833 82.9167 155.333 83.5417 155 83.875C154.667 84.2083 154.333 84.5833 154 85C153.5 85.5 153.25 85.7917 153.25 85.875C153.25 85.9583 153.208 86.0417 153.125 86.125C152.708 86.4583 152.458 86.6667 152.375 86.75C152.292 86.75 152.167 86.8333 152 87C151.75 87.25 151.5 87.5 151.25 87.75C151 88 150.75 88.2083 150.5 88.375C150.167 88.7083 149.667 89.125 149 89.625C148.417 90.125 148.083 90.4167 148 90.5C148 90.5833 147.958 90.625 147.875 90.625C146.708 91.375 145.875 91.9167 145.375 92.25C144.958 92.5 144.542 92.7917 144.125 93.125C143.875 93.2917 143.625 93.4583 143.375 93.625C143.125 93.7917 142.833 93.9583 142.5 94.125C141.667 94.375 141.208 94.5833 141.125 94.75C141.042 94.8333 140.958 94.9167 140.875 95L139.625 95.875C138.792 96.375 138.125 96.75 137.625 97C137.208 97.1667 136.75 97.3333 136.25 97.5C136 97.6667 135.708 97.7917 135.375 97.875C135.042 97.9583 134.667 98.0833 134.25 98.25C133.417 98.6667 132.75 98.875 132.25 98.875C131.833 98.875 131.417 98.9167 131 99C130.333 99.0833 129.458 99.125 128.375 99.125C127.375 99.2083 126.25 99.25 125 99.25C123.75 99.1667 122.833 99 122.25 98.75C121.75 98.5833 121.25 98.4167 120.75 98.25C120.417 98.1667 120.083 98.0833 119.75 98C119.5 98 119.167 97.9583 118.75 97.875C118.5 97.7917 118.208 97.75 117.875 97.75C117.625 97.75 117.375 97.7083 117.125 97.625C116.458 97.4583 115.833 97.2917 115.25 97.125C114.75 96.875 114.167 96.6667 113.5 96.5C112.667 96.4167 112.25 96.3333 112.25 96.25C112.333 96.1667 112.292 96.125 112.125 96.125L110.625 95.625C110.125 95.5417 109.833 95.4583 109.75 95.375C109.667 95.2083 109.542 95.0833 109.375 95C108.625 94.9167 108.208 94.8333 108.125 94.75C108.125 94.6667 108.083 94.625 108 94.625C107.75 94.5417 107.292 94.4167 106.625 94.25C105.458 93.9167 104.292 93.5833 103.125 93.25C102.042 92.8333 100.958 92.375 99.875 91.875C99.375 91.625 98.875 91.375 98.375 91.125C97.875 90.7917 97.375 90.4583 96.875 90.125C96.5417 89.875 96.0417 89.5833 95.375 89.25C94.375 88.75 93.75 88.4167 93.5 88.25C93.1667 87.9167 92.7083 87.625 92.125 87.375C91.9583 87.2083 91.75 87.0417 91.5 86.875C91.25 86.625 91.0417 86.4167 90.875 86.25C90.4583 85.9167 90.125 85.625 89.875 85.375C89.7083 85.125 89.5 84.9167 89.25 84.75C89.0833 84.5 88.875 84.3333 88.625 84.25C88.4583 84.0833 88.2917 83.9167 88.125 83.75C87.7917 83.4167 87.5 83.0833 87.25 82.75C87 82.4167 86.6667 82.0833 86.25 81.75C85.5833 81.0833 85.2083 80.7083 85.125 80.625C85.125 80.4583 85.0417 80.2917 84.875 80.125C84.7083 79.875 84.5417 79.5833 84.375 79.25C84.2917 78.8333 84.1667 78.4583 84 78.125C83.6667 77.625 83.4583 77.2083 83.375 76.875C83.2917 76.5417 83.1667 76.2083 83 75.875C82.8333 75.4583 82.625 75.125 82.375 74.875C82.2083 74.5417 82.0417 74.0417 81.875 73.375C81.7083 72.5417 81.5 72.125 81.25 72.125C81.0833 71.7917 81 71.4167 81 71C81 70.5833 80.9167 70.1667 80.75 69.75C80.5833 69.5 80.4583 69.2917 80.375 69.125C80.2917 68.875 80.2083 68.5833 80.125 68.25C79.9583 67.8333 79.875 67.4583 79.875 67.125C79.9583 66.7083 79.9167 66.2917 79.75 65.875C79.5 65.2917 79.2917 64.875 79.125 64.625C79.0417 64.2917 79 64 79 63.75C78.75 62.6667 78.5833 61.875 78.5 61.375C78.5 60.875 78.4583 60.4167 78.375 60C78.2083 58.5833 78.0417 57.1667 77.875 55.75C77.7917 54.3333 77.8333 52.875 78 51.375C78 51.125 78 50.875 78 50.625C78 50.2917 78.0417 50 78.125 49.75C78.625 47.75 78.8333 46.2083 78.75 45.125C78.6667 44.0417 78.75 43.0417 79 42.125C79.25 41.7917 79.375 41.5 79.375 41.25C79.375 41 79.4167 40.7917 79.5 40.625C79.75 39.7083 79.875 39.2083 79.875 39.125C79.9583 38.375 80.0417 37.9583 80.125 37.875C80.2083 37.7917 80.25 37.7083 80.25 37.625C80.3333 37.2917 80.375 37 80.375 36.75C80.375 36.4167 80.4167 36.0833 80.5 35.75C80.5833 35.5833 80.6667 35.375 80.75 35.125C80.8333 34.875 80.9167 34.625 81 34.375C81.1667 33.7083 81.25 33.1667 81.25 32.75C81.5 32.1667 81.5833 31.7917 81.5 31.625C81.5 31.4583 81.5417 31.2917 81.625 31.125C81.9583 30.625 82.2083 30.2083 82.375 29.875C82.7917 28.625 83.0417 27.9167 83.125 27.75C83.2083 27.5 83.2917 27.25 83.375 27C83.5417 26.75 83.7083 26.5 83.875 26.25L84.5 24.875C84.9167 23.9583 85.125 23.5 85.125 23.5C85.2917 23.25 85.625 22.875 86.125 22.375C86.625 21.875 86.875 21.5833 86.875 21.5C86.875 21.3333 86.9167 21.1667 87 21C87.5833 20.4167 87.875 20 87.875 19.75C88.5417 19 88.875 18.625 88.875 18.625C88.9583 18.5417 89.0417 18.4167 89.125 18.25C89.5417 17.6667 89.9167 17.125 90.25 16.625C90.6667 16.0417 91.1667 15.5 91.75 15C92.5 14.4167 92.875 14.0833 92.875 14C93.625 13.4167 94.1667 12.9167 94.5 12.5C94.9167 12 95.3333 11.5417 95.75 11.125C96.3333 10.9583 96.75 10.7083 97 10.375C97.4167 10.375 97.75 10.25 98 10C98.25 9.66667 98.5 9.41667 98.75 9.25C99.3333 8.91667 99.7083 8.70833 99.875 8.625C100.042 8.45833 100.208 8.29167 100.375 8.125C101.208 7.625 101.625 7.33333 101.625 7.25C101.625 7.16667 101.708 7.125 101.875 7.125C102.625 6.95833 103.208 6.75 103.625 6.5C104.375 6.08333 105.125 5.75 105.875 5.5C106.625 5.16667 107.458 4.91667 108.375 4.75C109.125 4.58333 109.792 4.45833 110.375 4.375C111.042 4.29167 111.667 4.08333 112.25 3.75ZM126.25 11C125.583 10.75 124.958 10.5 124.375 10.25C123.792 10 123.042 9.95833 122.125 10.125C120.875 10.2917 119.542 10.375 118.125 10.375C116.792 10.375 115.542 10.5833 114.375 11C114.042 11.0833 113.708 11.2083 113.375 11.375C113.125 11.4583 112.917 11.5833 112.75 11.75C111.833 12.1667 110.917 12.5417 110 12.875C109.083 13.2083 108.125 13.5417 107.125 13.875C106.708 14.375 106.417 14.6667 106.25 14.75C106.083 14.75 105.958 14.7917 105.875 14.875C105.292 15.625 104.958 16 104.875 16C104.792 15.9167 104.708 15.9167 104.625 16C104.375 16.1667 104.125 16.375 103.875 16.625C103.708 16.7917 103.5 16.9583 103.25 17.125L102.125 18C101.458 18.5 101.125 18.7917 101.125 18.875C101.208 18.875 101.208 18.9167 101.125 19C100.708 19.5 100.292 20 99.875 20.5C99.4583 20.9167 99.0833 21.3333 98.75 21.75C97.4167 23.3333 96.5 24.6667 96 25.75C95.6667 26.5833 95.375 27.4167 95.125 28.25C94.875 29 94.5417 29.75 94.125 30.5C92.7083 33.9167 91.7083 37.4583 91.125 41.125C91.0417 41.5417 90.9583 42.0417 90.875 42.625C90.875 43.2083 90.875 43.5833 90.875 43.75C90.875 44.4167 90.8333 45 90.75 45.5C90.6667 46 90.5833 46.4583 90.5 46.875C90.3333 47.9583 90.2083 49 90.125 50C90.125 51 90.0833 52.0417 90 53.125C89.9167 54.2083 89.7917 55.2917 89.625 56.375C89.5417 57.375 89.5 58.4167 89.5 59.5C89.5833 60.5 89.7083 61.5833 89.875 62.75C90.0417 63.9167 90.2083 64.8333 90.375 65.5C90.625 66.1667 90.75 66.5833 90.75 66.75C90.75 66.9167 90.7917 67.0833 90.875 67.25C91.0417 67.6667 91.1667 68.0417 91.25 68.375C91.4167 68.7083 91.5833 69.0833 91.75 69.5C91.9167 69.8333 92 70.1667 92 70.5C92.0833 70.75 92.2083 70.9583 92.375 71.125C92.625 71.375 92.9583 71.6667 93.375 72C93.875 72.25 94.25 72.4583 94.5 72.625C94.9167 73.2917 95.1667 73.625 95.25 73.625C95.3333 73.625 95.375 73.6667 95.375 73.75C96.0417 74.4167 96.5 74.875 96.75 75.125C97.0833 75.375 97.375 75.625 97.625 75.875C98.125 76.2917 98.5417 76.6667 98.875 77C99.2083 77.3333 99.5833 77.625 100 77.875C100.5 78.375 100.875 78.6667 101.125 78.75C101.458 78.75 101.708 78.8333 101.875 79C102.292 79.25 102.708 79.5417 103.125 79.875C103.625 80.2083 104.042 80.5 104.375 80.75C105.042 81.25 105.5 81.5 105.75 81.5L107 82.75C107.5 83.25 107.792 83.5417 107.875 83.625C108.042 83.625 108.208 83.7083 108.375 83.875C109.042 84.5417 109.542 85 109.875 85.25C110.208 85.4167 110.5 85.5833 110.75 85.75C111.083 85.9167 111.375 86.125 111.625 86.375C111.875 86.5417 112.167 86.6667 112.5 86.75C113 87.5 113.292 87.875 113.375 87.875C113.458 87.7917 113.542 87.7917 113.625 87.875C114.042 88.125 114.333 88.375 114.5 88.625C114.75 88.875 115.042 89.0833 115.375 89.25C115.958 89.6667 116.375 89.9583 116.625 90.125C116.875 90.2917 117.083 90.4583 117.25 90.625C117.75 90.9583 118.167 91.2083 118.5 91.375C118.667 91.5417 118.917 91.6667 119.25 91.75C119.583 91.75 119.833 91.7917 120 91.875C120.167 92.0417 120.375 92.1667 120.625 92.25C120.875 92.25 121.125 92.2917 121.375 92.375C122.375 92.7917 123.125 93 123.625 93C124.208 92.9167 124.875 92.875 125.625 92.875C126.292 92.9583 126.708 93 126.875 93C127.125 92.9167 127.375 92.875 127.625 92.875C128.042 92.7083 128.583 92.5417 129.25 92.375C129.917 92.125 130.458 91.9167 130.875 91.75C131.875 91.5 132.583 91.2917 133 91.125C133.417 90.9583 133.833 90.7917 134.25 90.625C134.917 90.125 135.292 89.9167 135.375 90C135.542 90.0833 135.667 90.0417 135.75 89.875C136.417 89.625 136.917 89.4167 137.25 89.25C137.583 89 137.875 88.7917 138.125 88.625C138.792 88.2083 139.125 87.9583 139.125 87.875C139.125 87.7083 139.167 87.625 139.25 87.625C140.333 87.125 140.958 86.7917 141.125 86.625C141.458 86.4583 141.708 86.25 141.875 86C142.125 85.75 142.375 85.5417 142.625 85.375C143.125 84.9583 143.417 84.7083 143.5 84.625C143.667 84.5417 143.792 84.4583 143.875 84.375C144.625 83.5417 145.125 83.0417 145.375 82.875C145.625 82.7083 145.875 82.5417 146.125 82.375C146.625 81.4583 146.917 80.9167 147 80.75C147.083 80.5833 147.208 80.375 147.375 80.125C147.958 79.2917 148.25 78.75 148.25 78.5C148.75 78 149 77.7083 149 77.625C149 77.4583 149.042 77.2917 149.125 77.125C149.458 76.7083 149.625 76.3333 149.625 76C149.708 75.6667 149.792 75.2917 149.875 74.875C150.042 74.2917 150.208 73.75 150.375 73.25C150.542 72.75 150.708 72.2917 150.875 71.875C151.375 71.2083 151.583 70.7917 151.5 70.625C151.5 70.375 151.542 70.1667 151.625 70C152.125 68.9167 152.375 68.1667 152.375 67.75C152.375 67.3333 152.458 66.9167 152.625 66.5C152.875 65.5833 153.042 65.0417 153.125 64.875C153.208 64.625 153.292 64.4167 153.375 64.25C153.458 64 153.5 63.7083 153.5 63.375C153.5 62.9583 153.5 62.5833 153.5 62.25C153.583 62 153.625 61.75 153.625 61.5C153.708 61.1667 153.792 60.875 153.875 60.625C153.958 59.9583 153.958 59.2917 153.875 58.625C153.875 57.9583 153.917 57.2917 154 56.625C154.083 56.2083 154.167 55.875 154.25 55.625C154.333 55.2917 154.417 54.9583 154.5 54.625C154.583 53.5417 154.583 52.75 154.5 52.25C154.5 51.75 154.5 51.4167 154.5 51.25C154.583 50.4167 154.542 49.75 154.375 49.25C154.208 48.75 154.083 48.2083 154 47.625C153.917 46.9583 153.917 46.3333 154 45.75C154.083 45.0833 154.042 44.4167 153.875 43.75C153.375 42.5 153.125 41.6667 153.125 41.25C153.125 40.8333 153.042 40.4167 152.875 40C152.625 39.5 152.5 39.1667 152.5 39C152.583 38.8333 152.625 38.6667 152.625 38.5C152.208 37.5833 152 37 152 36.75C152 36.4167 151.917 36.1667 151.75 36C151.083 34.5833 150.625 33.6667 150.375 33.25C150.125 32.75 149.792 32.2083 149.375 31.625C148.875 30.7917 148.625 30.3333 148.625 30.25C148.708 30.1667 148.708 30.0417 148.625 29.875C148.125 29.125 147.833 28.75 147.75 28.75C147.667 28.6667 147.583 28.5833 147.5 28.5C146.917 27.6667 146.583 27.1667 146.5 27C146.5 26.8333 146.417 26.6667 146.25 26.5C146.083 26.3333 145.875 26.0833 145.625 25.75C145.458 25.4167 145.292 25.2083 145.125 25.125C144.375 24.375 143.75 23.75 143.25 23.25C142.833 22.75 142.417 22.25 142 21.75C141.333 21 141 20.5833 141 20.5C140.417 20.5 139.958 20.375 139.625 20.125C139.375 19.875 139.167 19.7083 139 19.625C137.833 19.2083 136.5 18.7917 135 18.375C133.417 17.875 132.083 17.625 131 17.625C129.833 17.4583 128.542 17.4167 127.125 17.5C125.792 17.5833 124.5 17.7083 123.25 17.875C122.917 17.9583 122.583 18 122.25 18C122 18 121.708 18.0833 121.375 18.25C121.125 18.3333 120.875 18.4167 120.625 18.5C120.375 18.5833 120.083 18.7083 119.75 18.875C119.333 18.9583 118.958 19.0417 118.625 19.125C118.292 19.125 118 19.1667 117.75 19.25C117.333 19.4167 116.917 19.6667 116.5 20C116.083 20.25 115.667 20.5 115.25 20.75C115 20.9167 114.75 21.0417 114.5 21.125C114.25 21.125 114 21.2083 113.75 21.375C113.333 21.7917 113.042 22.1667 112.875 22.5C112.792 22.8333 112.667 23.3333 112.5 24C112.417 24.8333 112.375 25.5417 112.375 26.125C112.458 26.625 112.583 27.2083 112.75 27.875C112.833 28.7917 112.958 29.875 113.125 31.125C113.375 32.2917 113.583 33.2083 113.75 33.875C114.25 34.625 114.542 35.0833 114.625 35.25C114.708 35.3333 114.75 35.4583 114.75 35.625C115.167 35.875 115.542 36.25 115.875 36.75C116.208 37.1667 116.583 37.5 117 37.75C117.25 37.9167 117.5 38.125 117.75 38.375C118.083 38.625 118.417 38.7917 118.75 38.875C120.333 38.625 121.292 38.4167 121.625 38.25C121.958 38.0833 122.417 37.875 123 37.625C123.333 37.4583 123.667 37.2917 124 37.125C124.333 36.9583 124.667 36.75 125 36.5C125.917 35.9167 126.458 35.5833 126.625 35.5C127.042 35.3333 127.375 35.1667 127.625 35C127.958 34.8333 128.25 34.6667 128.5 34.5C128.75 34.0833 128.917 33.6667 129 33.25C129.083 32.75 129.208 32.25 129.375 31.75C129.458 31.1667 129.542 30.5833 129.625 30C129.708 29.4167 129.667 28.875 129.5 28.375C129.417 28.0417 129.25 27.7083 129 27.375C128.75 27.0417 128.542 26.7083 128.375 26.375C127.792 25.375 127.208 24.7917 126.625 24.625C125.958 24.4583 125.375 24.5 124.875 24.75C124.458 24.9167 124 25.0833 123.5 25.25C123.25 25.4167 123 25.5 122.75 25.5C122.5 25.5 122.292 25.5833 122.125 25.75C121.792 26.5833 121.583 27.2083 121.5 27.625C121.417 28.0417 121.542 28.4583 121.875 28.875C122.042 29.2917 122.375 29.75 122.875 30.25C123.375 30.75 123.792 31.2083 124.125 31.625C123.958 32.4583 123.667 32.9167 123.25 33C122.917 33 122.542 33 122.125 33C121.792 32.9167 121.458 32.7917 121.125 32.625C120.875 32.4583 120.708 32.3333 120.625 32.25C120.208 31.6667 119.958 31.3333 119.875 31.25C119.792 31.1667 119.708 31.0833 119.625 31C119.208 30.3333 119 29.7083 119 29.125C119.083 28.5417 119.292 27.875 119.625 27.125C119.792 26.7083 119.917 26.2917 120 25.875C120.083 25.4583 120.208 25.125 120.375 24.875C121.125 23.9583 121.542 23.4583 121.625 23.375C121.708 23.2083 121.833 23.0417 122 22.875C122.417 22.4583 122.833 22.1667 123.25 22C123.75 21.75 124.292 21.5417 124.875 21.375C125.292 21.5417 125.667 21.7083 126 21.875C126.417 22.0417 126.833 22.2083 127.25 22.375C128.25 22.875 128.875 23.125 129.125 23.125C129.375 23.0417 129.583 23.0833 129.75 23.25C130.417 23.75 130.833 24 131 24C131.333 24.5 131.583 24.7917 131.75 24.875C132 24.9583 132.208 25.0833 132.375 25.25C133.042 26.1667 133.333 27.4167 133.25 29C133.167 30.5833 132.958 31.9167 132.625 33C132.208 34.6667 131.75 35.9583 131.25 36.875C130.75 37.7917 130.25 38.5 129.75 39C129.333 39.0833 129 39.25 128.75 39.5C128.583 39.6667 128.333 39.8333 128 40C126.667 40.6667 125.75 41.0833 125.25 41.25C124.75 41.4167 124.208 41.5833 123.625 41.75C123.125 42 122.583 42.25 122 42.5C121.417 42.75 120.792 42.875 120.125 42.875C119.292 42.875 118.458 42.6667 117.625 42.25C116.875 41.8333 116.292 41.4583 115.875 41.125C115.292 40.7083 114.833 40.4167 114.5 40.25C114.25 40 113.917 39.625 113.5 39.125C113.083 38.7083 112.875 38.4583 112.875 38.375C112.875 38.2083 112.833 38.0417 112.75 37.875C112.25 37.375 111.917 37.0417 111.75 36.875C111.667 36.7083 111.542 36.5 111.375 36.25C110.792 35.3333 110.417 34.5417 110.25 33.875C110.167 32.375 110.083 31.375 110 30.875C109.917 30.2917 109.875 29.75 109.875 29.25C109.792 28.8333 109.792 28.4167 109.875 28C110.042 27.5 110.125 27.0417 110.125 26.625C110.125 26.125 110.083 25.6667 110 25.25C109.917 24.75 109.875 24.2917 109.875 23.875C109.708 22.5417 109.75 21.4167 110 20.5C110.5 19.75 110.75 19.3333 110.75 19.25C110.75 19.1667 110.792 19.0417 110.875 18.875C111.292 18.5417 111.542 18.3333 111.625 18.25C111.792 18.1667 111.917 18.0417 112 17.875C113.417 16.2083 114.708 15.1667 115.875 14.75C117.042 14.25 118.292 13.7917 119.625 13.375C120.208 13.2083 120.833 13.0417 121.5 12.875C122.167 12.625 122.833 12.4583 123.5 12.375C124.333 12.2083 125.125 12.125 125.875 12.125C126.625 12.125 127.417 12.0417 128.25 11.875C128.083 11.4583 127.792 11.25 127.375 11.25C127.042 11.1667 126.667 11.0833 126.25 11ZM229.125 41.75C228.875 40.25 228.708 39.125 228.625 38.375C228.625 37.625 228.542 36.7917 228.375 35.875C228.292 35.2083 228.208 34.5833 228.125 34C228.042 33.4167 227.917 32.6667 227.75 31.75C227.75 31.5 227.708 31.25 227.625 31C227.542 30.75 227.5 30.5417 227.5 30.375C227.583 30.0417 227.583 29.7917 227.5 29.625C227.5 29.375 227.5 29.1667 227.5 29C227.5 28.6667 227.458 28.375 227.375 28.125C227.375 27.875 227.375 27.625 227.375 27.375C227.292 27.125 227.167 26.875 227 26.625C226.917 26.2917 226.833 25.9167 226.75 25.5C226.5 24.75 226.375 23.9167 226.375 23C226.375 22.0833 226.292 21.1667 226.125 20.25C226.125 19.8333 226.125 19.4167 226.125 19C226.125 18.5 226.083 18.0417 226 17.625C225.75 16.7083 225.625 16.125 225.625 15.875C225.708 15.625 225.667 15.4167 225.5 15.25C225.333 14.75 225.083 14.3333 224.75 14C224.417 13.6667 224.083 13.2917 223.75 12.875C223.583 12.7083 223.375 12.5417 223.125 12.375C222.958 12.2083 222.75 12.0417 222.5 11.875C221.75 11.2917 221.208 11 220.875 11C220.375 10.5833 219.917 10.2917 219.5 10.125C219.083 9.875 218.667 9.625 218.25 9.375C217.917 8.95833 217.625 8.70833 217.375 8.625C217.125 8.45833 216.875 8.29167 216.625 8.125C216.042 7.625 215.625 7.375 215.375 7.375C214.792 6.875 214.333 6.58333 214 6.5C213.75 6.33333 213.5 6.16667 213.25 6C213.083 5.83333 212.875 5.70833 212.625 5.625C212.292 5.45833 212.167 5.16667 212.25 4.75C212.417 4.25 212.708 4.04167 213.125 4.125C213.542 4.125 213.958 4.08333 214.375 4C214.792 4 215.125 4 215.375 4C215.708 3.91667 216.083 3.83333 216.5 3.75C216.833 3.66667 217.167 3.66667 217.5 3.75C217.917 3.75 218.375 3.79167 218.875 3.875C219.292 3.95833 219.75 3.95833 220.25 3.875C220.75 3.79167 221.292 3.79167 221.875 3.875C222.292 3.875 222.625 3.95833 222.875 4.125C223.208 4.20833 223.583 4.29167 224 4.375C224.667 4.20833 225.333 4.20833 226 4.375C226.667 4.375 227.333 4.375 228 4.375C228.667 4.29167 229.375 4.33333 230.125 4.5C230.292 4.5 230.583 4.58333 231 4.75C231.417 4.83333 231.792 4.875 232.125 4.875C232.792 4.95833 233.375 4.91667 233.875 4.75C234.458 4.58333 235.042 4.5 235.625 4.5C236.792 4.41667 238 4.45833 239.25 4.625C240.5 4.70833 241.667 4.79167 242.75 4.875C243.917 4.95833 245.083 5 246.25 5C247.5 4.91667 248.75 4.83333 250 4.75C250.25 4.66667 250.583 4.66667 251 4.75C251.5 4.75 251.917 4.75 252.25 4.75C252.667 4.75 253.083 4.70833 253.5 4.625C253.917 4.54167 254.333 4.5 254.75 4.5C255.583 4.5 256.417 4.58333 257.25 4.75C258.083 4.83333 258.958 4.875 259.875 4.875C260.875 4.875 261.833 4.83333 262.75 4.75C263.75 4.66667 264.792 4.70833 265.875 4.875C266.542 5.04167 267.208 5.16667 267.875 5.25C268.542 5.33333 269.25 5.45833 270 5.625C270.25 5.70833 270.5 5.79167 270.75 5.875C271.083 5.875 271.417 5.95833 271.75 6.125C272.167 6.29167 272.708 6.33333 273.375 6.25C274.042 6.16667 274.667 6.20833 275.25 6.375C275.667 6.625 276.125 6.91667 276.625 7.25C277.208 7.66667 277.542 7.91667 277.625 8C277.792 8 277.958 8.08333 278.125 8.25L279.5 9.5C279.833 9.66667 280.083 9.875 280.25 10.125C280.5 10.2917 280.75 10.5 281 10.75C281.167 11 281.292 11.25 281.375 11.5C281.542 11.6667 281.75 11.8333 282 12C282.25 12.25 282.667 12.4583 283.25 12.625C283.417 13.2917 283.75 13.8333 284.25 14.25C284.833 14.5833 285.375 15.0417 285.875 15.625C286.458 16.4583 286.75 16.9583 286.75 17.125C286.833 17.2083 286.917 17.3333 287 17.5C287.583 18.4167 287.917 18.9583 288 19.125C288.083 19.2917 288.208 19.5 288.375 19.75C289.042 20.8333 289.375 21.375 289.375 21.375C289.958 22.4583 290.458 23.1667 290.875 23.5C291.292 24.25 291.583 24.7917 291.75 25.125C292 25.4583 292.25 25.8333 292.5 26.25C292.75 26.5 292.958 26.75 293.125 27C293.375 27.1667 293.583 27.4583 293.75 27.875C294.083 28.625 294.292 29.1667 294.375 29.5C294.458 29.8333 294.583 30.1667 294.75 30.5C295.167 31.25 295.583 32 296 32.75C296.5 33.4167 296.875 34.0833 297.125 34.75C297.292 35.0833 297.417 35.4583 297.5 35.875C297.583 36.2917 297.708 36.7083 297.875 37.125C298.375 38.2083 298.75 39.0417 299 39.625C299.25 40.2083 299.292 40.75 299.125 41.25C299.125 41.3333 299.208 41.5417 299.375 41.875C299.542 42.125 299.667 42.3333 299.75 42.5C299.917 43.3333 300 43.9583 300 44.375C300.333 46.0417 300.667 47.9167 301 50C301.417 52.0833 301.375 53.875 300.875 55.375C300.708 55.625 300.542 55.9167 300.375 56.25C300.292 56.5 300.25 56.7083 300.25 56.875C300.167 57.125 300.125 57.4583 300.125 57.875C300.125 58.2083 300.042 58.5 299.875 58.75C299.542 59.4167 299.333 59.8333 299.25 60C299.25 60.0833 299.208 60.2083 299.125 60.375C299.042 60.5417 298.958 60.75 298.875 61C298.792 61.1667 298.667 61.375 298.5 61.625C298.333 62.0417 298.083 62.5833 297.75 63.25C297.5 63.8333 297.208 64.375 296.875 64.875L296 66.375C295.75 66.625 295.5 66.9167 295.25 67.25C295 67.5833 294.792 67.9167 294.625 68.25C294.458 68.5833 294.208 69 293.875 69.5C293.542 70.1667 293.208 70.6667 292.875 71C292.625 71.25 292.375 71.5833 292.125 72C291.792 72.8333 291.375 73.625 290.875 74.375C290.625 74.625 290.375 74.875 290.125 75.125C289.958 75.375 289.792 75.5833 289.625 75.75C289.208 76.4167 288.958 76.7917 288.875 76.875C288.792 76.875 288.708 76.9583 288.625 77.125C287.875 78.0417 287.167 79 286.5 80C286.25 80.25 286 80.4583 285.75 80.625C285.583 80.7917 285.375 81 285.125 81.25C284.542 82 284.208 82.375 284.125 82.375C284.042 82.375 283.958 82.4167 283.875 82.5C283.375 83 282.958 83.375 282.625 83.625C281.792 84.2917 281.208 84.7917 280.875 85.125C280.542 85.375 280.167 85.625 279.75 85.875C279 86.5417 278.583 86.9167 278.5 87C277.667 87.75 277.083 88.25 276.75 88.5C276.417 88.75 276.083 88.9583 275.75 89.125C275.5 89.2917 275.25 89.4583 275 89.625C274.75 89.7917 274.458 89.9583 274.125 90.125C273.792 90.2917 273.5 90.4167 273.25 90.5C273 90.5833 272.708 90.7083 272.375 90.875C271.792 91.4583 271.333 91.8333 271 92C270.75 92.0833 270.5 92.2083 270.25 92.375C269.667 92.9583 269.292 93.25 269.125 93.25C268.958 93.1667 268.792 93.2083 268.625 93.375C267.792 93.875 267.375 94.1667 267.375 94.25C267.375 94.3333 267.333 94.375 267.25 94.375C266.833 94.625 266.417 94.875 266 95.125C265.667 95.2917 265.292 95.5 264.875 95.75C264.125 96.0833 263.375 96.4167 262.625 96.75C261.958 97 261.25 97.25 260.5 97.5C260 97.75 259.25 97.9167 258.25 98C257.25 98.0833 256.542 98.1667 256.125 98.25C255.792 98.4167 255.458 98.5417 255.125 98.625C254.375 98.7917 253.542 98.9167 252.625 99C251.792 99.0833 250.917 99.2083 250 99.375C249.083 99.5417 248.167 99.6667 247.25 99.75C246.417 99.9167 245.458 100.042 244.375 100.125C244.042 100.208 243.542 100.333 242.875 100.5C241.958 100.75 241.083 100.875 240.25 100.875C240 100.875 239.708 100.792 239.375 100.625C239.042 100.542 238.708 100.5 238.375 100.5C237.958 100.417 237.458 100.375 236.875 100.375C236.292 100.375 235.75 100.333 235.25 100.25H233.875C232.792 100.333 232.083 100.333 231.75 100.25C231.417 100.167 231.083 100.083 230.75 100C230.333 99.9167 229.917 99.875 229.5 99.875C229.167 99.875 228.875 99.875 228.625 99.875L226.75 99.5C226.333 99.5 225.958 99.5 225.625 99.5C225.292 99.5 224.917 99.4583 224.5 99.375C224.083 99.2917 223.667 99.2083 223.25 99.125C222.833 99.0417 222.375 98.9167 221.875 98.75C221.375 98.6667 220.875 98.625 220.375 98.625C219.875 98.625 219.417 98.5833 219 98.5C218.083 98.1667 217.083 97.7917 216 97.375L213.875 96.625C212.792 96.125 212.042 95.7083 211.625 95.375C211.208 95.0417 211.25 94.6667 211.75 94.25C211.917 94.0833 212.208 94.0417 212.625 94.125C213.042 94.2083 213.542 94.25 214.125 94.25C214.958 94.1667 215.583 94.0833 216 94C216.5 93.9167 217.125 93.875 217.875 93.875C218.292 93.9583 219.167 94.0417 220.5 94.125C221.833 94.125 222.875 94.0417 223.625 93.875C224.042 93.875 224.375 93.8333 224.625 93.75C224.958 93.5833 225.25 93.4583 225.5 93.375C226.5 93.125 227 92.9583 227 92.875C227.083 92.7083 227.208 92.625 227.375 92.625C227.375 92.2083 227.417 91.8333 227.5 91.5C227.583 91.1667 227.667 90.8333 227.75 90.5C227.917 90 228.042 89.5833 228.125 89.25C228.292 88.8333 228.375 88.4167 228.375 88C228.458 87.75 228.458 87.5 228.375 87.25C228.292 87 228.25 86.75 228.25 86.5C228.25 86.0833 228.292 85.6667 228.375 85.25C228.458 84.8333 228.542 84.4167 228.625 84C228.625 83.3333 228.625 82.3333 228.625 81C228.625 79.6667 228.708 78.3333 228.875 77C228.958 76.25 229 75.5417 229 74.875C229.083 74.125 229.125 73.3333 229.125 72.5C229.208 71.8333 229.25 71.125 229.25 70.375C229.333 69.625 229.417 68.875 229.5 68.125C229.5 67.4583 229.458 66.8333 229.375 66.25C229.375 65.5833 229.417 64.9167 229.5 64.25C229.583 63.6667 229.625 62.875 229.625 61.875C229.625 60.7917 229.625 59.6667 229.625 58.5C229.625 57.3333 229.625 56.2083 229.625 55.125C229.708 53.9583 229.75 53.0417 229.75 52.375C229.583 50.4583 229.458 48.5417 229.375 46.625C229.375 44.7083 229.292 43.0833 229.125 41.75ZM237.375 55.375C237.542 57.125 237.75 58.875 238 60.625C238.25 62.2917 238.417 63.9167 238.5 65.5C238.583 66.0833 238.583 66.7083 238.5 67.375C238.5 67.9583 238.542 68.5833 238.625 69.25C238.958 70.25 239.125 71.0833 239.125 71.75C239.208 72.6667 239.25 73.2083 239.25 73.375C239.583 75.2917 239.792 76.9583 239.875 78.375C239.958 79.7083 240.083 81 240.25 82.25C240.25 83 240.292 83.5417 240.375 83.875C240.458 84.4583 240.5 85 240.5 85.5C240.583 86 240.708 86.5417 240.875 87.125C240.958 87.625 240.958 88.125 240.875 88.625C240.875 89.0417 240.958 89.4583 241.125 89.875C241.208 90.2083 241.458 90.5417 241.875 90.875C242.292 91.2083 242.583 91.4167 242.75 91.5C243.333 91.6667 244.042 91.6667 244.875 91.5C245.708 91.25 246.542 91.0417 247.375 90.875C248.458 90.625 249.417 90.4167 250.25 90.25C251.083 90.0833 251.833 89.9167 252.5 89.75C253.75 89.4167 254.667 89.125 255.25 88.875C255.917 88.5417 256.542 88.25 257.125 88C258.042 87.75 258.542 87.5833 258.625 87.5C258.792 87.3333 258.958 87.2083 259.125 87.125C260.125 86.625 260.75 86.2917 261 86.125C261.25 85.9583 261.542 85.7917 261.875 85.625C262.875 84.9583 263.625 84.4583 264.125 84.125C264.708 83.7083 265.208 83.3333 265.625 83C266.292 82.6667 266.625 82.4583 266.625 82.375C266.625 82.2917 266.667 82.2083 266.75 82.125C267.75 81.5417 268.333 81.2083 268.5 81.125C269.167 80.625 269.625 80.375 269.875 80.375C270.542 79.5417 271.125 78.9167 271.625 78.5C272.208 78.0833 272.75 77.6667 273.25 77.25C274 77.4167 274.667 77.3333 275.25 77C275.417 76.9167 275.583 76.7917 275.75 76.625C276 76.375 276.25 76.1667 276.5 76C276.917 75.6667 277.208 75.4583 277.375 75.375C277.542 75.2083 277.708 75.0417 277.875 74.875C278.375 74.4583 278.875 74.0833 279.375 73.75C279.958 73.3333 280.333 72.9167 280.5 72.5C280.75 71.0833 280.917 69.9167 281 69C281.083 68.0833 281.333 67.4167 281.75 67C282.333 65.9167 282.792 65.0417 283.125 64.375C283.542 63.7083 283.833 63 284 62.25C284.333 61.3333 284.583 60.375 284.75 59.375C285 58.2917 285.25 57.2083 285.5 56.125C286.083 53.7917 286.417 51.625 286.5 49.625C286.5 49.2917 286.458 48.9583 286.375 48.625C286.292 48.2917 286.25 47.9583 286.25 47.625C286.25 47.2083 286.292 46.875 286.375 46.625C286.458 46.2917 286.5 45.9583 286.5 45.625C286.167 44.5417 286 43.875 286 43.625C286.083 43.375 286.083 43.125 286 42.875C285.75 41.5417 285.417 40.2083 285 38.875C284.5 37.7083 284.208 36.875 284.125 36.375C284.125 35.875 284.042 35.4167 283.875 35C283.542 34.3333 283.333 33.8333 283.25 33.5C283.167 33.0833 283.042 32.7917 282.875 32.625C282.375 31.5417 282.042 30.8333 281.875 30.5C281.708 30.0833 281.542 29.7083 281.375 29.375C281.208 29.0417 281.042 28.7083 280.875 28.375C280.625 27.9583 280.333 27.5 280 27C279.75 26.5 279.542 26.0417 279.375 25.625C279.208 25.375 279.042 25.125 278.875 24.875C278.792 24.625 278.667 24.4167 278.5 24.25C278.25 23.9167 278 23.625 277.75 23.375C277.583 23.125 277.417 22.875 277.25 22.625C277.083 22.2917 276.917 21.9583 276.75 21.625C276.667 21.2917 276.542 20.9167 276.375 20.5C275.792 19.75 275.5 19.2917 275.5 19.125C275.5 18.875 275.417 18.6667 275.25 18.5C275.083 18.1667 274.792 17.875 274.375 17.625C273.958 17.375 273.583 17.0833 273.25 16.75C272.333 15.5 271.708 14.75 271.375 14.5C271.042 14.1667 270.667 13.7917 270.25 13.375C269.75 13.0417 269.208 12.7083 268.625 12.375L267.125 11.25C266.458 10.9167 265.875 10.6667 265.375 10.5C264.875 10.25 264.208 10 263.375 9.75C262.958 9.66667 262.583 9.58333 262.25 9.5C261.917 9.41667 261.583 9.375 261.25 9.375C260.583 9.20833 259.708 9.125 258.625 9.125C257.625 9.125 256.875 9.20833 256.375 9.375C254.958 9.29167 253.583 9.25 252.25 9.25C251 9.16667 249.75 9.20833 248.5 9.375C248.083 9.375 247.708 9.41667 247.375 9.5C247.125 9.58333 246.792 9.66667 246.375 9.75C245.958 9.83333 245.542 9.875 245.125 9.875C244.708 9.79167 244.333 9.79167 244 9.875C243.25 10.5417 242.75 10.9167 242.5 11C242.25 11 242.042 11.0417 241.875 11.125C241.042 11.5417 240.5 11.7917 240.25 11.875C240.083 11.875 239.917 11.9167 239.75 12C239.583 12.1667 239.375 12.4167 239.125 12.75C238.958 13.0833 238.792 13.3333 238.625 13.5C238.208 14 238 14.4167 238 14.75C238.083 15 238.042 15.2917 237.875 15.625C237.708 16.2917 237.458 17.125 237.125 18.125C236.792 19.125 236.667 19.9167 236.75 20.5C236.667 21 236.625 21.375 236.625 21.625C236.708 21.875 236.75 22.0417 236.75 22.125C236.667 22.875 236.5 23.625 236.25 24.375C236.083 25.0417 235.958 25.7083 235.875 26.375C235.792 26.625 235.75 26.9167 235.75 27.25C235.75 27.5 235.708 27.75 235.625 28V29.375C235.625 29.625 235.583 29.875 235.5 30.125C235.417 30.375 235.375 30.625 235.375 30.875C235.292 32.0417 235.25 33 235.25 33.75C235.25 34.5 235.25 35.3333 235.25 36.25C235.25 37.4167 235.25 38.5833 235.25 39.75C235.333 40.9167 235.417 42.0833 235.5 43.25C235.583 44.4167 235.708 45.5 235.875 46.5C236.042 47.4167 236.167 48.625 236.25 50.125C236.417 50.9583 236.583 51.75 236.75 52.5C236.917 53.1667 237.042 53.7917 237.125 54.375C237.208 54.875 237.292 55.2083 237.375 55.375ZM342 3.75C342.417 3.83333 342.75 3.83333 343 3.75C343.333 3.66667 343.708 3.625 344.125 3.625C344.458 3.625 344.75 3.66667 345 3.75C345.333 3.83333 345.667 3.875 346 3.875C346.25 3.875 346.5 3.83333 346.75 3.75C347.083 3.66667 347.375 3.625 347.625 3.625C348.042 3.54167 348.542 3.5 349.125 3.5C349.708 3.5 350.208 3.58333 350.625 3.75C351.458 4.08333 352 4.25 352.25 4.25C352.583 4.16667 352.917 4.16667 353.25 4.25C354.167 4.58333 354.833 4.79167 355.25 4.875C355.75 4.875 356.208 4.95833 356.625 5.125C357.042 5.29167 357.458 5.45833 357.875 5.625C358.292 5.79167 358.708 5.95833 359.125 6.125C359.792 6.29167 360.292 6.45833 360.625 6.625C360.958 6.79167 361.25 6.91667 361.5 7C361.75 7.08333 362.042 7.20833 362.375 7.375C362.875 7.79167 363.167 8 363.25 8C363.333 7.91667 363.458 7.91667 363.625 8C364.458 8.41667 364.958 8.625 365.125 8.625C365.292 8.54167 365.458 8.54167 365.625 8.625C366.958 9.29167 367.958 9.79167 368.625 10.125C369.375 10.4583 370.083 10.8333 370.75 11.25C371.083 11.4167 371.375 11.625 371.625 11.875C371.958 12.125 372.25 12.3333 372.5 12.5C373.417 12.9167 373.875 13.2083 373.875 13.375C373.958 13.4583 374.083 13.5833 374.25 13.75C375 14.25 375.417 14.5417 375.5 14.625C375.667 14.7083 375.833 14.8333 376 15C376.833 15.4167 377.25 15.6667 377.25 15.75C377.25 15.8333 377.292 15.9167 377.375 16C378.042 16.4167 378.5 16.7917 378.75 17.125C379.083 17.4583 379.417 17.7917 379.75 18.125C380.25 18.625 380.75 19.125 381.25 19.625C381.833 20.0417 382.417 20.5417 383 21.125C383.75 21.7917 384.333 22.3333 384.75 22.75C385.167 23.0833 385.583 23.4583 386 23.875C386 24.2917 386.167 24.5833 386.5 24.75C386.917 24.9167 387.208 25.0833 387.375 25.25C387.958 26 388.292 26.4583 388.375 26.625C388.458 26.7917 388.583 26.9583 388.75 27.125C388.917 27.4583 389.125 27.875 389.375 28.375C389.625 28.7917 389.875 29.2083 390.125 29.625C390.292 30.0417 390.458 30.4583 390.625 30.875C390.792 31.2083 390.958 31.5833 391.125 32C391.375 32.5 391.667 33.0833 392 33.75C392.417 34.4167 392.75 35.0833 393 35.75C393.25 37 393.5 37.875 393.75 38.375C393.917 39.0417 394.042 39.5833 394.125 40C394.292 41.1667 394.333 42.4583 394.25 43.875C394.25 45.2917 394.208 46.6667 394.125 48C394.125 49.9167 394.125 51.8333 394.125 53.75C394.125 55.5833 394.042 57.4167 393.875 59.25L393.5 60.75C393.5 61 393.5 61.2917 393.5 61.625C393.5 61.875 393.458 62.125 393.375 62.375C393.292 63.0417 393.167 63.625 393 64.125C392.917 64.5417 392.792 65.0417 392.625 65.625C392.542 65.875 392.5 66.125 392.5 66.375C392.583 66.625 392.583 66.9167 392.5 67.25C392.417 67.4167 392.333 67.625 392.25 67.875C392.167 68.125 392.083 68.4167 392 68.75C391.917 69 391.875 69.25 391.875 69.5C391.958 69.75 391.958 70 391.875 70.25C391.708 70.9167 391.458 71.625 391.125 72.375C390.875 73.0417 390.625 73.75 390.375 74.5C389.708 76.3333 388.958 78.0417 388.125 79.625C387.875 80.0417 387.583 80.4583 387.25 80.875C387 81.2083 386.667 81.5833 386.25 82C385.583 82.9167 385.083 83.5417 384.75 83.875C384.417 84.2083 384.083 84.5833 383.75 85C383.25 85.5 383 85.7917 383 85.875C383 85.9583 382.958 86.0417 382.875 86.125C382.458 86.4583 382.208 86.6667 382.125 86.75C382.042 86.75 381.917 86.8333 381.75 87C381.5 87.25 381.25 87.5 381 87.75C380.75 88 380.5 88.2083 380.25 88.375C379.917 88.7083 379.417 89.125 378.75 89.625C378.167 90.125 377.833 90.4167 377.75 90.5C377.75 90.5833 377.708 90.625 377.625 90.625C376.458 91.375 375.625 91.9167 375.125 92.25C374.708 92.5 374.292 92.7917 373.875 93.125C373.625 93.2917 373.375 93.4583 373.125 93.625C372.875 93.7917 372.583 93.9583 372.25 94.125C371.417 94.375 370.958 94.5833 370.875 94.75C370.792 94.8333 370.708 94.9167 370.625 95L369.375 95.875C368.542 96.375 367.875 96.75 367.375 97C366.958 97.1667 366.5 97.3333 366 97.5C365.75 97.6667 365.458 97.7917 365.125 97.875C364.792 97.9583 364.417 98.0833 364 98.25C363.167 98.6667 362.5 98.875 362 98.875C361.583 98.875 361.167 98.9167 360.75 99C360.083 99.0833 359.208 99.125 358.125 99.125C357.125 99.2083 356 99.25 354.75 99.25C353.5 99.1667 352.583 99 352 98.75C351.5 98.5833 351 98.4167 350.5 98.25C350.167 98.1667 349.833 98.0833 349.5 98C349.25 98 348.917 97.9583 348.5 97.875C348.25 97.7917 347.958 97.75 347.625 97.75C347.375 97.75 347.125 97.7083 346.875 97.625C346.208 97.4583 345.583 97.2917 345 97.125C344.5 96.875 343.917 96.6667 343.25 96.5C342.417 96.4167 342 96.3333 342 96.25C342.083 96.1667 342.042 96.125 341.875 96.125L340.375 95.625C339.875 95.5417 339.583 95.4583 339.5 95.375C339.417 95.2083 339.292 95.0833 339.125 95C338.375 94.9167 337.958 94.8333 337.875 94.75C337.875 94.6667 337.833 94.625 337.75 94.625C337.5 94.5417 337.042 94.4167 336.375 94.25C335.208 93.9167 334.042 93.5833 332.875 93.25C331.792 92.8333 330.708 92.375 329.625 91.875C329.125 91.625 328.625 91.375 328.125 91.125C327.625 90.7917 327.125 90.4583 326.625 90.125C326.292 89.875 325.792 89.5833 325.125 89.25C324.125 88.75 323.5 88.4167 323.25 88.25C322.917 87.9167 322.458 87.625 321.875 87.375C321.708 87.2083 321.5 87.0417 321.25 86.875C321 86.625 320.792 86.4167 320.625 86.25C320.208 85.9167 319.875 85.625 319.625 85.375C319.458 85.125 319.25 84.9167 319 84.75C318.833 84.5 318.625 84.3333 318.375 84.25C318.208 84.0833 318.042 83.9167 317.875 83.75C317.542 83.4167 317.25 83.0833 317 82.75C316.75 82.4167 316.417 82.0833 316 81.75C315.333 81.0833 314.958 80.7083 314.875 80.625C314.875 80.4583 314.792 80.2917 314.625 80.125C314.458 79.875 314.292 79.5833 314.125 79.25C314.042 78.8333 313.917 78.4583 313.75 78.125C313.417 77.625 313.208 77.2083 313.125 76.875C313.042 76.5417 312.917 76.2083 312.75 75.875C312.583 75.4583 312.375 75.125 312.125 74.875C311.958 74.5417 311.792 74.0417 311.625 73.375C311.458 72.5417 311.25 72.125 311 72.125C310.833 71.7917 310.75 71.4167 310.75 71C310.75 70.5833 310.667 70.1667 310.5 69.75C310.333 69.5 310.208 69.2917 310.125 69.125C310.042 68.875 309.958 68.5833 309.875 68.25C309.708 67.8333 309.625 67.4583 309.625 67.125C309.708 66.7083 309.667 66.2917 309.5 65.875C309.25 65.2917 309.042 64.875 308.875 64.625C308.792 64.2917 308.75 64 308.75 63.75C308.5 62.6667 308.333 61.875 308.25 61.375C308.25 60.875 308.208 60.4167 308.125 60C307.958 58.5833 307.792 57.1667 307.625 55.75C307.542 54.3333 307.583 52.875 307.75 51.375C307.75 51.125 307.75 50.875 307.75 50.625C307.75 50.2917 307.792 50 307.875 49.75C308.375 47.75 308.583 46.2083 308.5 45.125C308.417 44.0417 308.5 43.0417 308.75 42.125C309 41.7917 309.125 41.5 309.125 41.25C309.125 41 309.167 40.7917 309.25 40.625C309.5 39.7083 309.625 39.2083 309.625 39.125C309.708 38.375 309.792 37.9583 309.875 37.875C309.958 37.7917 310 37.7083 310 37.625C310.083 37.2917 310.125 37 310.125 36.75C310.125 36.4167 310.167 36.0833 310.25 35.75C310.333 35.5833 310.417 35.375 310.5 35.125C310.583 34.875 310.667 34.625 310.75 34.375C310.917 33.7083 311 33.1667 311 32.75C311.25 32.1667 311.333 31.7917 311.25 31.625C311.25 31.4583 311.292 31.2917 311.375 31.125C311.708 30.625 311.958 30.2083 312.125 29.875C312.542 28.625 312.792 27.9167 312.875 27.75C312.958 27.5 313.042 27.25 313.125 27C313.292 26.75 313.458 26.5 313.625 26.25L314.25 24.875C314.667 23.9583 314.875 23.5 314.875 23.5C315.042 23.25 315.375 22.875 315.875 22.375C316.375 21.875 316.625 21.5833 316.625 21.5C316.625 21.3333 316.667 21.1667 316.75 21C317.333 20.4167 317.625 20 317.625 19.75C318.292 19 318.625 18.625 318.625 18.625C318.708 18.5417 318.792 18.4167 318.875 18.25C319.292 17.6667 319.667 17.125 320 16.625C320.417 16.0417 320.917 15.5 321.5 15C322.25 14.4167 322.625 14.0833 322.625 14C323.375 13.4167 323.917 12.9167 324.25 12.5C324.667 12 325.083 11.5417 325.5 11.125C326.083 10.9583 326.5 10.7083 326.75 10.375C327.167 10.375 327.5 10.25 327.75 10C328 9.66667 328.25 9.41667 328.5 9.25C329.083 8.91667 329.458 8.70833 329.625 8.625C329.792 8.45833 329.958 8.29167 330.125 8.125C330.958 7.625 331.375 7.33333 331.375 7.25C331.375 7.16667 331.458 7.125 331.625 7.125C332.375 6.95833 332.958 6.75 333.375 6.5C334.125 6.08333 334.875 5.75 335.625 5.5C336.375 5.16667 337.208 4.91667 338.125 4.75C338.875 4.58333 339.542 4.45833 340.125 4.375C340.792 4.29167 341.417 4.08333 342 3.75ZM356 11C355.333 10.75 354.708 10.5 354.125 10.25C353.542 10 352.792 9.95833 351.875 10.125C350.625 10.2917 349.292 10.375 347.875 10.375C346.542 10.375 345.292 10.5833 344.125 11C343.792 11.0833 343.458 11.2083 343.125 11.375C342.875 11.4583 342.667 11.5833 342.5 11.75C341.583 12.1667 340.667 12.5417 339.75 12.875C338.833 13.2083 337.875 13.5417 336.875 13.875C336.458 14.375 336.167 14.6667 336 14.75C335.833 14.75 335.708 14.7917 335.625 14.875C335.042 15.625 334.708 16 334.625 16C334.542 15.9167 334.458 15.9167 334.375 16C334.125 16.1667 333.875 16.375 333.625 16.625C333.458 16.7917 333.25 16.9583 333 17.125L331.875 18C331.208 18.5 330.875 18.7917 330.875 18.875C330.958 18.875 330.958 18.9167 330.875 19C330.458 19.5 330.042 20 329.625 20.5C329.208 20.9167 328.833 21.3333 328.5 21.75C327.167 23.3333 326.25 24.6667 325.75 25.75C325.417 26.5833 325.125 27.4167 324.875 28.25C324.625 29 324.292 29.75 323.875 30.5C322.458 33.9167 321.458 37.4583 320.875 41.125C320.792 41.5417 320.708 42.0417 320.625 42.625C320.625 43.2083 320.625 43.5833 320.625 43.75C320.625 44.4167 320.583 45 320.5 45.5C320.417 46 320.333 46.4583 320.25 46.875C320.083 47.9583 319.958 49 319.875 50C319.875 51 319.833 52.0417 319.75 53.125C319.667 54.2083 319.542 55.2917 319.375 56.375C319.292 57.375 319.25 58.4167 319.25 59.5C319.333 60.5 319.458 61.5833 319.625 62.75C319.792 63.9167 319.958 64.8333 320.125 65.5C320.375 66.1667 320.5 66.5833 320.5 66.75C320.5 66.9167 320.542 67.0833 320.625 67.25C320.792 67.6667 320.917 68.0417 321 68.375C321.167 68.7083 321.333 69.0833 321.5 69.5C321.667 69.8333 321.75 70.1667 321.75 70.5C321.833 70.75 321.958 70.9583 322.125 71.125C322.375 71.375 322.708 71.6667 323.125 72C323.625 72.25 324 72.4583 324.25 72.625C324.667 73.2917 324.917 73.625 325 73.625C325.083 73.625 325.125 73.6667 325.125 73.75C325.792 74.4167 326.25 74.875 326.5 75.125C326.833 75.375 327.125 75.625 327.375 75.875C327.875 76.2917 328.292 76.6667 328.625 77C328.958 77.3333 329.333 77.625 329.75 77.875C330.25 78.375 330.625 78.6667 330.875 78.75C331.208 78.75 331.458 78.8333 331.625 79C332.042 79.25 332.458 79.5417 332.875 79.875C333.375 80.2083 333.792 80.5 334.125 80.75C334.792 81.25 335.25 81.5 335.5 81.5L336.75 82.75C337.25 83.25 337.542 83.5417 337.625 83.625C337.792 83.625 337.958 83.7083 338.125 83.875C338.792 84.5417 339.292 85 339.625 85.25C339.958 85.4167 340.25 85.5833 340.5 85.75C340.833 85.9167 341.125 86.125 341.375 86.375C341.625 86.5417 341.917 86.6667 342.25 86.75C342.75 87.5 343.042 87.875 343.125 87.875C343.208 87.7917 343.292 87.7917 343.375 87.875C343.792 88.125 344.083 88.375 344.25 88.625C344.5 88.875 344.792 89.0833 345.125 89.25C345.708 89.6667 346.125 89.9583 346.375 90.125C346.625 90.2917 346.833 90.4583 347 90.625C347.5 90.9583 347.917 91.2083 348.25 91.375C348.417 91.5417 348.667 91.6667 349 91.75C349.333 91.75 349.583 91.7917 349.75 91.875C349.917 92.0417 350.125 92.1667 350.375 92.25C350.625 92.25 350.875 92.2917 351.125 92.375C352.125 92.7917 352.875 93 353.375 93C353.958 92.9167 354.625 92.875 355.375 92.875C356.042 92.9583 356.458 93 356.625 93C356.875 92.9167 357.125 92.875 357.375 92.875C357.792 92.7083 358.333 92.5417 359 92.375C359.667 92.125 360.208 91.9167 360.625 91.75C361.625 91.5 362.333 91.2917 362.75 91.125C363.167 90.9583 363.583 90.7917 364 90.625C364.667 90.125 365.042 89.9167 365.125 90C365.292 90.0833 365.417 90.0417 365.5 89.875C366.167 89.625 366.667 89.4167 367 89.25C367.333 89 367.625 88.7917 367.875 88.625C368.542 88.2083 368.875 87.9583 368.875 87.875C368.875 87.7083 368.917 87.625 369 87.625C370.083 87.125 370.708 86.7917 370.875 86.625C371.208 86.4583 371.458 86.25 371.625 86C371.875 85.75 372.125 85.5417 372.375 85.375C372.875 84.9583 373.167 84.7083 373.25 84.625C373.417 84.5417 373.542 84.4583 373.625 84.375C374.375 83.5417 374.875 83.0417 375.125 82.875C375.375 82.7083 375.625 82.5417 375.875 82.375C376.375 81.4583 376.667 80.9167 376.75 80.75C376.833 80.5833 376.958 80.375 377.125 80.125C377.708 79.2917 378 78.75 378 78.5C378.5 78 378.75 77.7083 378.75 77.625C378.75 77.4583 378.792 77.2917 378.875 77.125C379.208 76.7083 379.375 76.3333 379.375 76C379.458 75.6667 379.542 75.2917 379.625 74.875C379.792 74.2917 379.958 73.75 380.125 73.25C380.292 72.75 380.458 72.2917 380.625 71.875C381.125 71.2083 381.333 70.7917 381.25 70.625C381.25 70.375 381.292 70.1667 381.375 70C381.875 68.9167 382.125 68.1667 382.125 67.75C382.125 67.3333 382.208 66.9167 382.375 66.5C382.625 65.5833 382.792 65.0417 382.875 64.875C382.958 64.625 383.042 64.4167 383.125 64.25C383.208 64 383.25 63.7083 383.25 63.375C383.25 62.9583 383.25 62.5833 383.25 62.25C383.333 62 383.375 61.75 383.375 61.5C383.458 61.1667 383.542 60.875 383.625 60.625C383.708 59.9583 383.708 59.2917 383.625 58.625C383.625 57.9583 383.667 57.2917 383.75 56.625C383.833 56.2083 383.917 55.875 384 55.625C384.083 55.2917 384.167 54.9583 384.25 54.625C384.333 53.5417 384.333 52.75 384.25 52.25C384.25 51.75 384.25 51.4167 384.25 51.25C384.333 50.4167 384.292 49.75 384.125 49.25C383.958 48.75 383.833 48.2083 383.75 47.625C383.667 46.9583 383.667 46.3333 383.75 45.75C383.833 45.0833 383.792 44.4167 383.625 43.75C383.125 42.5 382.875 41.6667 382.875 41.25C382.875 40.8333 382.792 40.4167 382.625 40C382.375 39.5 382.25 39.1667 382.25 39C382.333 38.8333 382.375 38.6667 382.375 38.5C381.958 37.5833 381.75 37 381.75 36.75C381.75 36.4167 381.667 36.1667 381.5 36C380.833 34.5833 380.375 33.6667 380.125 33.25C379.875 32.75 379.542 32.2083 379.125 31.625C378.625 30.7917 378.375 30.3333 378.375 30.25C378.458 30.1667 378.458 30.0417 378.375 29.875C377.875 29.125 377.583 28.75 377.5 28.75C377.417 28.6667 377.333 28.5833 377.25 28.5C376.667 27.6667 376.333 27.1667 376.25 27C376.25 26.8333 376.167 26.6667 376 26.5C375.833 26.3333 375.625 26.0833 375.375 25.75C375.208 25.4167 375.042 25.2083 374.875 25.125C374.125 24.375 373.5 23.75 373 23.25C372.583 22.75 372.167 22.25 371.75 21.75C371.083 21 370.75 20.5833 370.75 20.5C370.167 20.5 369.708 20.375 369.375 20.125C369.125 19.875 368.917 19.7083 368.75 19.625C367.583 19.2083 366.25 18.7917 364.75 18.375C363.167 17.875 361.833 17.625 360.75 17.625C359.583 17.4583 358.292 17.4167 356.875 17.5C355.542 17.5833 354.25 17.7083 353 17.875C352.667 17.9583 352.333 18 352 18C351.75 18 351.458 18.0833 351.125 18.25C350.875 18.3333 350.625 18.4167 350.375 18.5C350.125 18.5833 349.833 18.7083 349.5 18.875C349.083 18.9583 348.708 19.0417 348.375 19.125C348.042 19.125 347.75 19.1667 347.5 19.25C347.083 19.4167 346.667 19.6667 346.25 20C345.833 20.25 345.417 20.5 345 20.75C344.75 20.9167 344.5 21.0417 344.25 21.125C344 21.125 343.75 21.2083 343.5 21.375C343.083 21.7917 342.792 22.1667 342.625 22.5C342.542 22.8333 342.417 23.3333 342.25 24C342.167 24.8333 342.125 25.5417 342.125 26.125C342.208 26.625 342.333 27.2083 342.5 27.875C342.583 28.7917 342.708 29.875 342.875 31.125C343.125 32.2917 343.333 33.2083 343.5 33.875C344 34.625 344.292 35.0833 344.375 35.25C344.458 35.3333 344.5 35.4583 344.5 35.625C344.917 35.875 345.292 36.25 345.625 36.75C345.958 37.1667 346.333 37.5 346.75 37.75C347 37.9167 347.25 38.125 347.5 38.375C347.833 38.625 348.167 38.7917 348.5 38.875C350.083 38.625 351.042 38.4167 351.375 38.25C351.708 38.0833 352.167 37.875 352.75 37.625C353.083 37.4583 353.417 37.2917 353.75 37.125C354.083 36.9583 354.417 36.75 354.75 36.5C355.667 35.9167 356.208 35.5833 356.375 35.5C356.792 35.3333 357.125 35.1667 357.375 35C357.708 34.8333 358 34.6667 358.25 34.5C358.5 34.0833 358.667 33.6667 358.75 33.25C358.833 32.75 358.958 32.25 359.125 31.75C359.208 31.1667 359.292 30.5833 359.375 30C359.458 29.4167 359.417 28.875 359.25 28.375C359.167 28.0417 359 27.7083 358.75 27.375C358.5 27.0417 358.292 26.7083 358.125 26.375C357.542 25.375 356.958 24.7917 356.375 24.625C355.708 24.4583 355.125 24.5 354.625 24.75C354.208 24.9167 353.75 25.0833 353.25 25.25C353 25.4167 352.75 25.5 352.5 25.5C352.25 25.5 352.042 25.5833 351.875 25.75C351.542 26.5833 351.333 27.2083 351.25 27.625C351.167 28.0417 351.292 28.4583 351.625 28.875C351.792 29.2917 352.125 29.75 352.625 30.25C353.125 30.75 353.542 31.2083 353.875 31.625C353.708 32.4583 353.417 32.9167 353 33C352.667 33 352.292 33 351.875 33C351.542 32.9167 351.208 32.7917 350.875 32.625C350.625 32.4583 350.458 32.3333 350.375 32.25C349.958 31.6667 349.708 31.3333 349.625 31.25C349.542 31.1667 349.458 31.0833 349.375 31C348.958 30.3333 348.75 29.7083 348.75 29.125C348.833 28.5417 349.042 27.875 349.375 27.125C349.542 26.7083 349.667 26.2917 349.75 25.875C349.833 25.4583 349.958 25.125 350.125 24.875C350.875 23.9583 351.292 23.4583 351.375 23.375C351.458 23.2083 351.583 23.0417 351.75 22.875C352.167 22.4583 352.583 22.1667 353 22C353.5 21.75 354.042 21.5417 354.625 21.375C355.042 21.5417 355.417 21.7083 355.75 21.875C356.167 22.0417 356.583 22.2083 357 22.375C358 22.875 358.625 23.125 358.875 23.125C359.125 23.0417 359.333 23.0833 359.5 23.25C360.167 23.75 360.583 24 360.75 24C361.083 24.5 361.333 24.7917 361.5 24.875C361.75 24.9583 361.958 25.0833 362.125 25.25C362.792 26.1667 363.083 27.4167 363 29C362.917 30.5833 362.708 31.9167 362.375 33C361.958 34.6667 361.5 35.9583 361 36.875C360.5 37.7917 360 38.5 359.5 39C359.083 39.0833 358.75 39.25 358.5 39.5C358.333 39.6667 358.083 39.8333 357.75 40C356.417 40.6667 355.5 41.0833 355 41.25C354.5 41.4167 353.958 41.5833 353.375 41.75C352.875 42 352.333 42.25 351.75 42.5C351.167 42.75 350.542 42.875 349.875 42.875C349.042 42.875 348.208 42.6667 347.375 42.25C346.625 41.8333 346.042 41.4583 345.625 41.125C345.042 40.7083 344.583 40.4167 344.25 40.25C344 40 343.667 39.625 343.25 39.125C342.833 38.7083 342.625 38.4583 342.625 38.375C342.625 38.2083 342.583 38.0417 342.5 37.875C342 37.375 341.667 37.0417 341.5 36.875C341.417 36.7083 341.292 36.5 341.125 36.25C340.542 35.3333 340.167 34.5417 340 33.875C339.917 32.375 339.833 31.375 339.75 30.875C339.667 30.2917 339.625 29.75 339.625 29.25C339.542 28.8333 339.542 28.4167 339.625 28C339.792 27.5 339.875 27.0417 339.875 26.625C339.875 26.125 339.833 25.6667 339.75 25.25C339.667 24.75 339.625 24.2917 339.625 23.875C339.458 22.5417 339.5 21.4167 339.75 20.5C340.25 19.75 340.5 19.3333 340.5 19.25C340.5 19.1667 340.542 19.0417 340.625 18.875C341.042 18.5417 341.292 18.3333 341.375 18.25C341.542 18.1667 341.667 18.0417 341.75 17.875C343.167 16.2083 344.458 15.1667 345.625 14.75C346.792 14.25 348.042 13.7917 349.375 13.375C349.958 13.2083 350.583 13.0417 351.25 12.875C351.917 12.625 352.583 12.4583 353.25 12.375C354.083 12.2083 354.875 12.125 355.625 12.125C356.375 12.125 357.167 12.0417 358 11.875C357.833 11.4583 357.542 11.25 357.125 11.25C356.792 11.1667 356.417 11.0833 356 11Z" fill="white"/>
</svg>
